<svg width="150" height="150" viewBox="0 0 55 55" fill="none" xmlns="http://www.w3.org/2000/svg">
<path d="M47.25 45.4239C55.9485 36.7255 55.9485 22.6224 47.25 13.924C38.5515 5.22547 24.4485 5.22547 15.75 13.924C7.05151 22.6224 7.05151 36.7255 15.75 45.4239C24.4485 54.1224 38.5515 54.1224 47.25 45.4239Z" stroke="#E9FCFF" stroke-width="1.38962" stroke-miterlimit="10"/>
<path d="M10.5366 45.7632V15.4717C10.5366 14.926 11.1511 14.6052 11.599 14.9156L33.4166 30.0613C33.8041 30.33 33.8041 30.9028 33.4166 31.1736L11.599 46.3193C11.1511 46.6318 10.5366 46.3089 10.5366 45.7632Z" stroke="url(#paint0_linear_31_20255)" stroke-width="6.99574" stroke-miterlimit="10" stroke-linecap="round"/>
<path d="M18.1915 25.6624C20.1641 25.6624 21.7285 26.6726 21.7285 28.8681C21.7285 31.0637 20.1621 32.2093 18.1915 32.2093H16.8854V35.8338H14.1733V25.6644H18.1915V25.6624Z" fill="#E9FCFF"/>
<path d="M25.2058 25.6621V33.4526H28.4845V35.8315H22.4937V25.6621H25.2058Z" fill="#E9FCFF"/>
<path d="M35.3142 25.6621L39.4553 35.8315H36.5328L35.9162 34.1421H32.1939L31.5773 35.8315H28.6548L32.7959 25.6621H35.3101H35.3142ZM34.9143 31.5321L34.2144 29.749C34.1582 29.6053 33.954 29.6053 33.8978 29.749L33.1979 31.5321C33.1541 31.6425 33.2354 31.7633 33.3562 31.7633H34.756C34.8747 31.7633 34.958 31.6425 34.9143 31.5321Z" fill="#E9FCFF"/>
<path d="M40.9496 25.6621L42.8597 28.4846L44.7698 25.6621H48.036L44.2137 31.2217V35.8315H41.5016V31.2217L37.6792 25.6621H40.9454H40.9496Z" fill="#E9FCFF"/>
<path d="M16.8945 30.1052V27.8784C16.8945 27.7868 16.9987 27.7326 17.0737 27.7847L18.6776 28.897C18.7422 28.9429 18.7422 29.0387 18.6776 29.0845L17.0737 30.1969C16.9987 30.2489 16.8945 30.1969 16.8945 30.1031V30.1052Z" fill="#232323"/>
<defs>
<linearGradient id="paint0_linear_31_20255" x1="2.23416" y1="18.3021" x2="26.863" y2="42.9309" gradientUnits="userSpaceOnUse">
<stop stop-color="#007EF8"/>
<stop offset="1" stop-color="#FF4A9A"/>
</linearGradient>
</defs>
</svg>
